<svg xmlns="http://www.w3.org/2000/svg" viewBox="0 0 1000 90.1"><path d="M17.3,73.5h1.1l2.8,6.9L24,73.5h1.1L21.7,82h-.9Zm-.3,0h1V82H17Zm7.5,0h1V82H24.4V73.5ZM31,80.9V77.7a1.5,1.5,0,0,0-.1-.7,1,1,0,0,0-.5-.4l-.7-.2-.7.2-.5.3c-.1.2-.2.3-.2.5H27.2a2.5,2.5,0,0,1,.2-.7l.5-.6.8-.4,1.1-.2a2.7,2.7,0,0,1,1.2.3,1.8,1.8,0,0,1,.8.7,2.1,2.1,0,0,1,.3,1.2v2.9a1.7,1.7,0,0,0,.1.7c0,.2.1.4.1.6H31.2a4.3,4.3,0,0,1-.1-.5C31.1,81.3,31,81.1,31,80.9Zm.2-2.7v.7H29.3l-.6.2a.8.8,0,0,0-.4.4,1.3,1.3,0,0,0,0,1c.1.2.3.3.4.4l.7.2.9-.2.6-.6a.7.7,0,0,0,.2-.6l.5.6-.2.5-.5.6-.7.4a1.5,1.5,0,0,1-.9.2l-1.2-.2-.7-.7a1.7,1.7,0,0,1-.3-1,2.9,2.9,0,0,1,.2-.9,1.7,1.7,0,0,1,.6-.6,1.9,1.9,0,0,1,.9-.4h2.4ZM35,75.7V82H33.9V75.7ZM33.8,74c0-.2.1-.3.2-.5h.9a.6.6,0,0,1,.2.5.4.4,0,0,1-.2.4l-.4.2-.5-.2Zm4,3v5H36.7V75.7h1.1Zm-.2,1.6h-.5a3.7,3.7,0,0,1,.2-1.2,3.1,3.1,0,0,1,.5-1,1.8,1.8,0,0,1,.9-.6,1.7,1.7,0,0,1,1-.3l.8.2.7.4a1.6,1.6,0,0,1,.4.7,3.1,3.1,0,0,1,.1,1V82H40.6V77.8a1.9,1.9,0,0,0-.1-.8l-.4-.4H38.6l-.5.5a1.6,1.6,0,0,0-.4.7A1.9,1.9,0,0,0,37.6,78.6Z" transform="translate(-1)"/><path d="M3.3,9H1.5V8.1H3.3a2.4,2.4,0,0,0,1.5-.4,2.4,2.4,0,0,0,.9-1.1A3.8,3.8,0,0,0,6,5V4.5a4.9,4.9,0,0,0-.1-1.3,3.1,3.1,0,0,0-.5-1,1.8,1.8,0,0,0-.9-.6L3.4,1.4H1.5V.5H3.4A3.3,3.3,0,0,1,4.9.8a2,2,0,0,1,1.2.8,2.5,2.5,0,0,1,.8,1.2,4.7,4.7,0,0,1,.3,1.7V5a4.7,4.7,0,0,1-.3,1.7,2.5,2.5,0,0,1-.8,1.2,2.5,2.5,0,0,1-1.2.8A4.1,4.1,0,0,1,3.3,9ZM2.1.5V9H1V.5Zm9.2,8.6-1.2-.2-.9-.6-.6-1a5,5,0,0,1-.2-1.2V5.8a5.9,5.9,0,0,1,.2-1.4,3.6,3.6,0,0,1,.7-1,1.5,1.5,0,0,1,.9-.6,1.7,1.7,0,0,1,1-.3,2.7,2.7,0,0,1,1.2.3,2.4,2.4,0,0,1,.8.6,3,3,0,0,1,.4,1,5,5,0,0,1,.2,1.2v.5H9.1V5.2h3.6a2.9,2.9,0,0,0-.2-.9,2.1,2.1,0,0,0-.4-.6,1.2,1.2,0,0,0-.9-.3l-.7.2A1,1,0,0,0,10,4a3,3,0,0,0-.4.8c0,.3-.1.6-.1,1v.3c0,.3.1.5.1.8a1.6,1.6,0,0,0,.4.7l.6.5h.8a1.6,1.6,0,0,0,1-.2l.7-.6.6.5-.5.6-.8.4A1.8,1.8,0,0,1,11.3,9.1ZM16.9,8l1.7-5.3h1.2L17.5,9h-.8ZM15.5,2.7l1.7,5.4.2.9h-.8L14.3,2.7Zm7.8,6.4-1.2-.2-.9-.6-.6-1a5,5,0,0,1-.2-1.2V5.8a3.2,3.2,0,0,1,.3-1.4,2.1,2.1,0,0,1,.6-1,1.5,1.5,0,0,1,.9-.6,1.7,1.7,0,0,1,1-.3,2.4,2.4,0,0,1,1.2.3,2.4,2.4,0,0,1,.8.6,3.1,3.1,0,0,1,.5,1,4.9,4.9,0,0,1,.1,1.2v.5H21.1V5.2h3.6a2.8,2.8,0,0,0-.1-.9l-.5-.6a1.2,1.2,0,0,0-.9-.3l-.7.2A1,1,0,0,0,22,4a3,3,0,0,0-.4.8c0,.3-.1.6-.1,1v.3c0,.3.1.5.1.8a4.3,4.3,0,0,0,.4.7l.6.5h.8a1.6,1.6,0,0,0,1-.2l.7-.6.6.5-.5.6-.8.4A1.8,1.8,0,0,1,23.3,9.1Zm5-9.1V9H27.2V0Zm1.4,5.9h0a5.1,5.1,0,0,1,.2-1.3,2.1,2.1,0,0,1,.6-1,1.6,1.6,0,0,1,.9-.7,2.1,2.1,0,0,1,1.2-.3,2.7,2.7,0,0,1,1.2.3,2.8,2.8,0,0,1,.9.7,3.3,3.3,0,0,1,.6,1,5.1,5.1,0,0,1,.2,1.3h0a5.1,5.1,0,0,1-.2,1.3,3.3,3.3,0,0,1-.6,1l-.9.7-1.2.2-1.2-.2a2.2,2.2,0,0,1-.9-.7,2.1,2.1,0,0,1-.6-1A5.1,5.1,0,0,1,29.7,5.9Zm1.1-.1h0a2.8,2.8,0,0,0,.1.9l.3.7a1.3,1.3,0,0,0,.6.5,1.7,1.7,0,0,0,1.6,0,.8.8,0,0,0,.5-.5,1.6,1.6,0,0,0,.4-.7c0-.3.1-.6.1-.9h0c0-.3-.1-.6-.1-.9a3,3,0,0,0-.4-.8,1.2,1.2,0,0,0-.5-.5l-.8-.2-.8.2-.6.5-.3.8A2.8,2.8,0,0,0,30.8,5.8Zm7.1-1.9v7.5H36.8V2.7h1Zm4.3,1.9h0A5.1,5.1,0,0,1,42,7.2a1.9,1.9,0,0,1-.5,1,2.3,2.3,0,0,1-.7.7l-1.1.2a1.6,1.6,0,0,1-1-.2,1.6,1.6,0,0,1-.8-.6,1.9,1.9,0,0,1-.5-.9,3.5,3.5,0,0,1-.3-1.2V5.6a5,5,0,0,1,.3-1.3,1.9,1.9,0,0,1,.5-.9,1.6,1.6,0,0,1,.8-.6,1.7,1.7,0,0,1,1-.3,2,2,0,0,1,1.1.3,2.1,2.1,0,0,1,.8.6A3.6,3.6,0,0,1,42,4.5,5.1,5.1,0,0,1,42.2,5.8Zm-1.1.1h0a2.8,2.8,0,0,0-.1-.9l-.3-.8-.5-.5H38.7a1,1,0,0,0-.5.4,1,1,0,0,0-.4.5c-.1.2-.1.4-.2.6V6.7a2.5,2.5,0,0,0,.4.7,1,1,0,0,0,.5.6,1.5,1.5,0,0,0,.9.2,1.1,1.1,0,0,0,.8-.2.8.8,0,0,0,.5-.5l.3-.7A2.8,2.8,0,0,0,41.1,5.9Z" transform="translate(-1)"/><circle cx="58.5" cy="68.5" r="11.5" style="fill:#ca006d"/><path d="M49.7,85h.6L52,89.1,53.6,85h.6l-2,5h-.5Zm-.2,0h.6v5h-.7Zm4.4,0h.5v5h-.6V85Zm3.8,4.4V87.5c0-.2,0-.3-.1-.4l-.3-.3h-.8l-.3.2a.4.4,0,0,0-.1.3h-.6a.8.8,0,0,1,.1-.4l.3-.3.4-.3H57l.7.2a.8.8,0,0,1,.4.4.8.8,0,0,1,.2.7v1.7a.8.8,0,0,0,.1.4.4.4,0,0,0,.1.3h-.7v-.6Zm.1-1.6v.4H56.7l-.4.2-.2.2c0,.1-.1.2-.1.3s.1.2.1.3.1.2.3.2h.9l.3-.3c.1-.1.1-.2.2-.4l.2.3a.6.6,0,0,1-.1.4l-.3.3-.4.3h-.5l-.7-.2-.4-.4a.8.8,0,0,1-.2-.5,1.3,1.3,0,0,1,.1-.6l.4-.3.5-.3h1.4ZM60,86.3V90h-.6V86.3Zm-.7-1v-.2H60v.2c0,.1-.1.2-.1.3h-.6C59.4,85.5,59.3,85.4,59.3,85.3Zm2.4,1.8V90H61V86.3h.6Zm-.2.9h-.3a1.4,1.4,0,0,1,.2-.7.9.9,0,0,1,.3-.6l.4-.3.6-.2h.5l.4.2a.8.8,0,0,1,.2.5c.1.1.1.3.1.6V90h-.6V87.6a.7.7,0,0,0-.1-.5l-.2-.3h-.9l-.3.2-.2.4A.9.9,0,0,0,61.5,88Zm7.1-3v5H68V85.8l-1.3.5v-.6l1.8-.7Z" transform="translate(-1)"/><circle cx="131.5" cy="68.5" r="11.5" style="fill:#ca006d"/><path d="M122.7,85h.6l1.7,4.1,1.6-4.1h.6l-2,5h-.5Zm-.2,0h.6v5h-.7Zm4.4,0h.5v5h-.6V85Zm3.8,4.4V87.5c0-.2,0-.3-.1-.4l-.3-.3h-.8l-.3.2a.4.4,0,0,0-.1.3h-.6a.8.8,0,0,1,.1-.4c.1-.1.1-.2.3-.3l.4-.3h.6l.8.2a.8.8,0,0,1,.4.4.8.8,0,0,1,.2.7v1.7a.8.8,0,0,0,.1.4.4.4,0,0,0,.1.3h-.7v-.6Zm.1-1.6v.4h-1.1l-.4.2c-.1,0-.1.1-.2.2s-.1.2-.1.3.1.2.1.3.1.2.3.2h.9l.3-.3.2-.4.2.3a.6.6,0,0,1-.1.4l-.3.3-.4.3h-.5l-.7-.2a.8.8,0,0,1-.4-.4.8.8,0,0,1-.2-.5,1.3,1.3,0,0,1,.1-.6l.4-.3.5-.3h1.4Zm2.2-1.5V90h-.6V86.3Zm-.7-1v-.2h.6v.2c0,.1-.1.2-.1.3h-.6C132.4,85.5,132.3,85.4,132.3,85.3Zm2.4,1.8V90H134V86.3h.6Zm-.2.9h-.3a1.4,1.4,0,0,1,.2-.7.9.9,0,0,1,.3-.6l.4-.3.6-.2h.5l.4.2a.8.8,0,0,1,.2.5c.1.1.1.3.1.6V90h-.6V87.6a.7.7,0,0,0-.1-.5l-.2-.3h-.9l-.3.2-.2.4A.9.9,0,0,0,134.5,88Zm8.3,1.5V90h-3.2v-.5l1.6-1.8.5-.5.2-.5c0-.1.1-.2.1-.3a4.3,4.3,0,0,0-.1-.5l-.3-.3h-1.1l-.3.4a.7.7,0,0,0-.1.5h-.6a1.9,1.9,0,0,1,.1-.8l.6-.5c.2-.2.5-.2.9-.2h.8l.5.5a1.4,1.4,0,0,1,.2.7.6.6,0,0,1-.1.4c0,.2-.1.3-.2.5l-.3.4-.3.4-1.4,1.5Z" transform="translate(-1)"/><circle cx="204.5" cy="68.5" r="11.5" style="fill:#ca006d"/><path d="M195.7,85h.6l1.7,4.1,1.6-4.1h.6l-2,5h-.5Zm-.2,0h.6v5h-.7Zm4.4,0h.5v5h-.6V85Zm3.8,4.4V87.5c0-.2,0-.3-.1-.4l-.3-.3h-.8l-.3.2a.4.4,0,0,0-.1.3h-.6a.8.8,0,0,1,.1-.4c.1-.1.1-.2.3-.3l.4-.3h.6l.8.2a.8.8,0,0,1,.4.4.8.8,0,0,1,.2.7v1.7a.8.8,0,0,0,.1.4.4.4,0,0,0,.1.3h-.7v-.6Zm.1-1.6v.4h-1.1l-.4.2c-.1,0-.1.1-.2.2s-.1.2-.1.3.1.2.1.3.1.2.3.2h.9l.3-.3.2-.4.2.3a.6.6,0,0,1-.1.4l-.3.3-.4.3h-.5l-.7-.2a.8.8,0,0,1-.4-.4.8.8,0,0,1-.2-.5,1.3,1.3,0,0,1,.1-.6l.4-.3.5-.3h1.4Zm2.2-1.5V90h-.6V86.3Zm-.7-1v-.2h.6v.2c0,.1-.1.2-.1.3h-.6C205.4,85.5,205.3,85.4,205.3,85.3Zm2.4,1.8V90H207V86.3h.6Zm-.2.9h-.3a1.4,1.4,0,0,1,.2-.7.9.9,0,0,1,.3-.6l.4-.3.6-.2h.5l.4.2a.8.8,0,0,1,.2.5c.1.1.1.3.1.6V90h-.6V87.6a.7.7,0,0,0-.1-.5l-.2-.3h-.9l-.3.2-.2.4A.9.9,0,0,0,207.5,88Zm6-.8h1l.3-.3a.7.7,0,0,0,.1-.5.6.6,0,0,0-.1-.4.3.3,0,0,0-.3-.3h-.9a.3.3,0,0,0-.3.3.8.8,0,0,0-.2.4h-.6a1.9,1.9,0,0,1,.2-.7l.5-.5h1.6c.3.1.4.3.6.5a1.9,1.9,0,0,1,.1.8v.4l-.3.4-.5.3h-1.2Zm0,.5v-.4h.5l.8.2a.5.5,0,0,1,.5.3.5.5,0,0,1,.2.4.6.6,0,0,1,.1.4c0,.2,0,.5-.1.6l-.3.5-.5.3h-1.3l-.5-.3-.3-.4a1.3,1.3,0,0,1-.1-.6h.6c0,.2,0,.3.1.4l.3.3h1c.2,0,.3-.1.4-.3a4.3,4.3,0,0,0,.1-.5,4.3,4.3,0,0,0-.1-.5l-.4-.3h-1Z" transform="translate(-1)"/><circle cx="290.5" cy="12.5" r="11.5" style="fill:#00ca8d"/><path d="M278.1,34h-1v-.5h1a1.2,1.2,0,0,0,.9-.3,1,1,0,0,0,.5-.6,1.5,1.5,0,0,0,.2-.9v-.3a1.9,1.9,0,0,0-.1-.8.9.9,0,0,0-.3-.6l-.5-.3h-1.7V29h1.1l.9.2.7.5a1.6,1.6,0,0,1,.4.7,3,3,0,0,1,.2,1v.3a2.9,2.9,0,0,1-.2.9,2,2,0,0,1-.4.8l-.7.4Zm-.7-5v5h-.6V29Zm5.4,5.1-.7-.2-.5-.3a2.1,2.1,0,0,1-.4-.6,1.7,1.7,0,0,1-.1-.7v-.2a2.2,2.2,0,0,1,.1-.8,2.1,2.1,0,0,1,.4-.6c.2-.1.3-.3.5-.3l.6-.2.7.2a1,1,0,0,1,.5.4l.3.5v1h-2.7v-.5h2.1a.7.7,0,0,0-.1-.5c0-.2-.1-.3-.3-.4h-.9l-.3.3c-.1.1-.1.3-.2.4s-.1.4-.1.6v.2c0,.2.1.3.1.5s.1.3.2.4l.4.3h.4a.8.8,0,0,0,.6-.2.8.8,0,0,0,.4-.4l.4.4-.3.3-.5.3Zm3.3-.7,1-3.1h.6L286.4,34H286Zm-.9-3.1,1.1,3.1V34h-.4l-1.3-3.7Zm4.6,3.8-.7-.2-.5-.3a2.1,2.1,0,0,1-.4-.6c0-.2-.1-.5-.1-.7v-.2c0-.3.1-.5.1-.8l.4-.6c.2-.1.3-.3.5-.3l.6-.2.7.2a1,1,0,0,1,.5.4l.3.5v1h-2.7v-.5h2.1a.7.7,0,0,0-.1-.5c0-.2-.1-.3-.3-.4h-.9l-.3.3c-.1.1-.1.3-.2.4s-.1.4-.1.6v.2c0,.2.1.3.1.5s.1.3.2.4l.4.3h.4a.8.8,0,0,0,.6-.2.8.8,0,0,0,.4-.4l.4.4-.3.3-.5.3Zm2.9-5.3V34H292V28.8Zm.8,3.4h0c0-.3.1-.5.1-.7a.9.9,0,0,1,.4-.6,1,1,0,0,1,.5-.4l.7-.2.7.2a1,1,0,0,1,.5.4.9.9,0,0,1,.4.6,1.5,1.5,0,0,1,.1.7h0a1.5,1.5,0,0,1-.1.7.9.9,0,0,1-.4.6,1,1,0,0,1-.5.4l-.7.2-.7-.2a1,1,0,0,1-.5-.4.9.9,0,0,1-.4-.6C293.6,32.7,293.5,32.5,293.5,32.2Zm.7-.1h0v.5l.2.4.3.3h1q.2,0,.3-.3c.1-.1.1-.2.2-.4a4.3,4.3,0,0,0,.1-.5h0c0-.2-.1-.3-.1-.5s-.1-.3-.2-.4-.2-.3-.3-.3h-1l-.3.3-.2.4Zm4.1-1.1v4.4h-.6V30.3h.6Zm2.5,1.1h0a1.5,1.5,0,0,1-.1.7c-.1.3-.1.5-.3.6a.8.8,0,0,1-.4.4l-.6.2h-.6a1,1,0,0,1-.5-.4l-.3-.5c-.1-.2-.1-.5-.2-.7V32a6.4,6.4,0,0,1,.2-.7l.3-.6.4-.3.7-.2.6.2a.8.8,0,0,1,.4.4c.2.1.2.3.3.6A1.5,1.5,0,0,1,300.8,32.1Zm-.6.1h0a.9.9,0,0,0-.1-.5.5.5,0,0,0-.2-.4.3.3,0,0,0-.3-.3h-.8q-.3.1-.3.3l-.2.3-.2.3v.9c.1.2.2.3.2.5l.4.3h.9a.3.3,0,0,0,.3-.3.5.5,0,0,0,.2-.4A.7.7,0,0,0,300.2,32.2Zm5.2-3.2v5h-.7V29.8l-1.2.5v-.6l1.8-.7Z" transform="translate(-1)"/><circle cx="728.5" cy="12.5" r="11.5" style="fill:#00ca8d"/><path d="M716.1,34h-1v-.5h1a1.2,1.2,0,0,0,.9-.3,1,1,0,0,0,.5-.6,1.5,1.5,0,0,0,.2-.9v-.3a1.9,1.9,0,0,0-.1-.8.9.9,0,0,0-.3-.6l-.5-.3h-1.7V29h1.1l.9.2.7.5a1.6,1.6,0,0,1,.4.7,3,3,0,0,1,.2,1v.3a2.9,2.9,0,0,1-.2.9,2,2,0,0,1-.4.8l-.7.4Zm-.7-5v5h-.6V29Zm5.4,5.1-.7-.2-.5-.3a2.1,2.1,0,0,1-.4-.6,1.7,1.7,0,0,1-.1-.7v-.2c0-.3.1-.5.1-.8a2.1,2.1,0,0,1,.4-.6c.2-.1.3-.3.5-.3l.6-.2.7.2a1,1,0,0,1,.5.4l.3.5v1h-2.7v-.5h2.1a.7.7,0,0,0-.1-.5c0-.2-.1-.3-.3-.4h-.9l-.3.3c-.1.1-.1.3-.2.4s-.1.4-.1.6v.2c0,.2.1.3.1.5s.1.3.2.4l.4.3h.4a.8.8,0,0,0,.6-.2.8.8,0,0,0,.4-.4l.4.4-.3.3-.5.3Zm3.3-.7,1-3.1h.6L724.4,34H724Zm-.9-3.1,1.1,3.1V34h-.4l-1.3-3.7Zm4.6,3.8-.7-.2-.5-.3a2.1,2.1,0,0,1-.4-.6c0-.2-.1-.5-.1-.7v-.2c0-.3.1-.5.1-.8l.4-.6c.2-.1.3-.3.5-.3l.6-.2.7.2a1,1,0,0,1,.5.4l.3.5v1h-2.7v-.5h2.1a.7.7,0,0,0-.1-.5c0-.2-.1-.3-.3-.4h-.9l-.3.3c-.1.1-.1.3-.2.4s-.1.4-.1.6v.2c0,.2.1.3.1.5s.1.3.2.4l.4.3h.4a.8.8,0,0,0,.6-.2.8.8,0,0,0,.4-.4l.4.4-.3.3-.5.3Zm2.9-5.3V34H730V28.8Zm.8,3.4h0c0-.3.1-.5.1-.7a.9.9,0,0,1,.4-.6,1,1,0,0,1,.5-.4l.7-.2.7.2a1,1,0,0,1,.5.4.9.9,0,0,1,.4.6,1.5,1.5,0,0,1,.1.7h0a1.5,1.5,0,0,1-.1.7.9.9,0,0,1-.4.6,1,1,0,0,1-.5.4l-.7.2-.7-.2a1,1,0,0,1-.5-.4.9.9,0,0,1-.4-.6C731.6,32.7,731.5,32.5,731.5,32.2Zm.7-.1h0v.5c.1.2.1.3.2.4s.2.3.3.3h1l.3-.3.2-.4a4.3,4.3,0,0,0,.1-.5h0c0-.2-.1-.3-.1-.5l-.2-.4-.3-.3h-1q-.2,0-.3.3c-.1.1-.1.2-.2.4Zm4.1-1.1v4.4h-.6V30.3h.6Zm2.5,1.1h0a1.5,1.5,0,0,1-.1.7c-.1.3-.1.5-.3.6a.8.8,0,0,1-.4.4l-.6.2h-.6a1,1,0,0,1-.5-.4l-.3-.5c-.1-.2-.1-.5-.2-.7V32a6.4,6.4,0,0,1,.2-.7l.3-.6.4-.3.7-.2.6.2a.8.8,0,0,1,.4.4.6.6,0,0,1,.3.6A1.5,1.5,0,0,1,738.8,32.1Zm-.6.1h0a.9.9,0,0,0-.1-.5.5.5,0,0,0-.2-.4.3.3,0,0,0-.3-.3h-.8q-.3.1-.3.3l-.2.3-.2.3v.9c.1.2.2.3.2.5l.4.3h.9a.3.3,0,0,0,.3-.3.5.5,0,0,0,.2-.4A.7.7,0,0,0,738.2,32.2Zm6.3,1.3V34h-3.2v-.5l1.6-1.8.5-.5c.1-.2.2-.3.2-.5a.4.4,0,0,0,.1-.3,4.3,4.3,0,0,0-.1-.5l-.3-.3h-1l-.4.4a4.3,4.3,0,0,0-.1.5h-.6a1.9,1.9,0,0,1,.2-.8l.5-.5a1.5,1.5,0,0,1,.9-.2h.8l.5.5a.8.8,0,0,1,.2.7.6.6,0,0,1-.1.4c0,.2-.1.3-.2.5a.5.5,0,0,1-.3.4l-.3.4L742,33.5Z" transform="translate(-1)"/><circle cx="391.5" cy="68.5" r="11.5" style="fill:#ca006d"/><path d="M382.7,85h.6l1.7,4.1,1.6-4.1h.6l-2,5h-.5Zm-.2,0h.6v5h-.7Zm4.4,0h.5v5h-.6V85Zm3.8,4.4V87.5c0-.2,0-.3-.1-.4l-.3-.3h-.8l-.3.2a.4.4,0,0,0-.1.3h-.6a.8.8,0,0,1,.1-.4c.1-.1.1-.2.3-.3l.4-.3h.7l.7.2.4.4a.8.8,0,0,1,.2.7v1.7a.8.8,0,0,0,.1.4.4.4,0,0,0,.1.3h-.7v-.6Zm.1-1.6v.4h-1.1l-.4.2c-.1,0-.1.1-.2.2s-.1.2-.1.3.1.2.1.3.1.2.3.2h.9l.3-.3.2-.4.2.3a.6.6,0,0,1-.1.4l-.3.3-.4.3h-.5l-.7-.2a.8.8,0,0,1-.4-.4.8.8,0,0,1-.2-.5,1.3,1.3,0,0,1,.1-.6l.4-.3.5-.3h1.4Zm2.2-1.5V90h-.6V86.3Zm-.7-1v-.2h.6v.2c0,.1-.1.2-.1.3h-.6C392.4,85.5,392.3,85.4,392.3,85.3Zm2.4,1.8V90H394V86.3h.6Zm-.2.9h-.3a1.4,1.4,0,0,1,.2-.7.9.9,0,0,1,.3-.6l.4-.3.6-.2h.5l.4.2a.8.8,0,0,1,.2.5c.1.1.1.3.1.6V90h-.6V87.6a.7.7,0,0,0-.1-.5l-.2-.3h-.9l-.3.2-.2.4A.9.9,0,0,0,394.5,88Zm8.4.3v.5h-3.6v-.3l2.3-3.5h.5l-.6,1L400,88.3Zm-.7-3.3v5h-.6V85Z" transform="translate(-1)"/><circle cx="564.5" cy="68.5" r="11.5" style="fill:#ca006d"/><path d="M555.7,85h.6l1.7,4.1,1.6-4.1h.6l-2,5h-.5Zm-.2,0h.6v5h-.7Zm4.4,0h.5v5h-.6V85Zm3.8,4.4V87.5c0-.2,0-.3-.1-.4l-.3-.3h-.8l-.3.2a.4.4,0,0,0-.1.3h-.6a.8.8,0,0,1,.1-.4l.3-.3.4-.3h.7l.7.2.4.4a.8.8,0,0,1,.2.7v1.7a.8.8,0,0,0,.1.4.4.4,0,0,0,.1.3h-.7v-.6Zm.1-1.6v.4h-1.1l-.4.2-.2.2c0,.1-.1.2-.1.3s.1.2.1.3.1.2.3.2h.9l.3-.3c.1-.1.1-.2.2-.4l.2.3a.6.6,0,0,1-.1.4l-.3.3-.4.3h-.5l-.7-.2a.8.8,0,0,1-.4-.4.8.8,0,0,1-.2-.5,1.3,1.3,0,0,1,.1-.6l.4-.3.5-.3h1.4Zm2.2-1.5V90h-.6V86.3Zm-.7-1v-.2h.6v.2c0,.1-.1.2-.1.3h-.6C565.4,85.5,565.3,85.4,565.3,85.3Zm2.4,1.8V90H567V86.3h.6Zm-.2.9h-.3a1.4,1.4,0,0,1,.2-.7.9.9,0,0,1,.3-.6l.4-.3.6-.2h.5l.4.2a.8.8,0,0,1,.2.5c.1.1.1.3.1.6V90h-.6V87.6a.7.7,0,0,0-.1-.5l-.2-.3h-.9l-.3.2-.2.4A.9.9,0,0,0,567.5,88Zm5.9-.4h-.5l.2-2.5h2.6v.6h-2.1V87l.3-.2h.5l.6.2a.9.9,0,0,1,.5.3l.3.5a1.7,1.7,0,0,1,.1.7,1.5,1.5,0,0,1-.1.7l-.3.5a.9.9,0,0,1-.5.3l-.7.2h-.5l-.5-.3-.4-.4a1.3,1.3,0,0,1-.1-.6h.6c0,.2.1.3.1.5l.4.3h.8l.3-.3.2-.3a4.3,4.3,0,0,0,.1-.5c0-.1-.1-.3-.1-.4a.5.5,0,0,0-.2-.4l-.3-.2h-.9Z" transform="translate(-1)"/><circle cx="988.5" cy="68.5" r="11.5" style="fill:#ca006d"/><path d="M979.7,85h.6l1.7,4.1,1.6-4.1h.6l-2,5h-.5Zm-.2,0h.6v5h-.7Zm4.4,0h.5v5h-.6V85Zm3.8,4.4V87.5c0-.2,0-.3-.1-.4l-.3-.3h-.8l-.3.2a.4.4,0,0,0-.1.3h-.6a.8.8,0,0,1,.1-.4l.3-.3.4-.3h.7l.7.2.4.4a.8.8,0,0,1,.2.7v1.7a.8.8,0,0,0,.1.4.4.4,0,0,0,.1.3h-.7v-.6Zm.1-1.6v.4h-1.1l-.4.2-.2.2c0,.1-.1.2-.1.3s.1.2.1.3.1.2.3.2h.9l.3-.3c.1-.1.1-.2.2-.4l.2.3a.6.6,0,0,1-.1.4l-.3.3-.4.3h-.5l-.7-.2a.8.8,0,0,1-.4-.4.8.8,0,0,1-.2-.5,1.3,1.3,0,0,1,.1-.6l.4-.3.5-.3h1.4Zm2.2-1.5V90h-.6V86.3Zm-.7-1v-.2h.6v.2c0,.1-.1.2-.1.3h-.6C989.4,85.5,989.3,85.4,989.3,85.3Zm2.4,1.8V90H991V86.3h.6Zm-.2.9h-.3a1.4,1.4,0,0,1,.2-.7.9.9,0,0,1,.3-.6l.4-.3.6-.2h.5l.4.2a.8.8,0,0,1,.2.5c.1.1.1.3.1.6V90h-.6V87.6a.7.7,0,0,0-.1-.5l-.2-.3h-.9l-.3.2-.2.4A.9.9,0,0,0,991.5,88Zm7.5-3h0v.6h-.9a1.2,1.2,0,0,0-.5.5,1.6,1.6,0,0,0-.3.6c0,.2-.1.4-.1.6v.8c0,.2.1.4.1.6l.2.4.3.3h.8l.3-.3.2-.3V88l-.2-.4-.3-.2h-.9l-.4.3c0,.2-.1.3-.1.5h-.4a6.4,6.4,0,0,1,.2-.7l.4-.4.4-.3h.5l.7.2.4.4.3.5v.6a1.3,1.3,0,0,1-.1.6.9.9,0,0,1-.3.6c-.1.1-.2.3-.4.3l-.7.2-.7-.2-.5-.4-.3-.7a1.3,1.3,0,0,1-.1-.6v-.3a4.1,4.1,0,0,1,.1-1.1,3.6,3.6,0,0,1,.4-.9,1.1,1.1,0,0,1,.7-.6A2.1,2.1,0,0,1,999,85Z" transform="translate(-1)"/><path d="M121,68l-5-2.9v5.8Zm-50,.5h45.5v-1H71Z" transform="translate(-1)" style="fill:#ff4d00"/><path d="M194,68l-5-2.9v5.8Zm-50,.5h45.5v-1H144Z" transform="translate(-1)" style="fill:#ff4d00"/><path d="M381,68l-5-2.9v5.8Zm-164,.5H376.5v-1H217Z" transform="translate(-1)" style="fill:#ff4d00"/><path d="M554,68l-5-2.9v5.8Zm-150,.5H549.5v-1H404Z" transform="translate(-1)" style="fill:#ff4d00"/><path d="M978,68l-5-2.9v5.8Zm-401,.5H973.5v-1H577Z" transform="translate(-1)" style="fill:#ff4d00"/><path d="M280,16l-5.7,1,3.7,4.4ZM217.3,68.4l59.5-49.1-.6-.8L216.7,67.6Z" transform="translate(-1)" style="fill:#ff4d00"/><path d="M718,12l-5-2.9v5.8Zm-410,.5H713.5v-1H308Z" transform="translate(-1)" style="fill:#ff008a"/><path d="M978,68l-4.2-4-1.3,5.7ZM740.9,12.5l232.6,55,.2-1-232.6-55Z" transform="translate(-1)" style="fill:#ff008a"/></svg>