<svg xmlns="http://www.w3.org/2000/svg" viewBox="0 0 218.4 91.2"><path d="M255.5,427.3a13.6,13.6,0,0,1,3.2,8.8c0,9.7-7.5,15.3-18.5,15.3a25.1,25.1,0,0,1-6.9-.8l-2.9,4.6,8.6.6c15,.9,23.9,1.4,23.9,12.9s-8.8,15.7-23.9,15.7-21.8-4-21.8-10.9c0-3.9,1.8-6,4.8-8.9a5.6,5.6,0,0,1-3.8-5.7,7.5,7.5,0,0,1,2.5-5.3c1.6-1.7,3.3-3.3,5.4-5.2-4.3-2.1-7.5-6.6-7.5-13.1,0-10,6.6-16.9,19.9-16.9a31.7,31.7,0,0,1,8.1.9h16.9v7.4ZM229.8,467c-1.2,1.4-2.3,2.9-2.3,4.6,0,3.5,4.4,4.5,10.5,4.5s11.9-.3,11.9-5c0-2.8-3.3-3-7.4-3.2Zm9.5-40c-4.8,0-8.3,2.4-8.3,8.1,0,4.2,2.3,7.2,8.1,7.2s8.1-2.9,8.1-7.4S244.3,427,239.3,427Z" transform="translate(-108.5 -396)" style="fill:#3e3200"/><path d="M267.6,463.8v-6.9l4.4-.6c1.3-.2,1.4-.4,1.4-1.7V429c0-1-.2-1.6-1.1-1.8l-4.7-1.7,1-7h18v36.1c0,1.4.1,1.5,1.4,1.7l4.4.6v6.9Zm11.2-52.3c-4.9,0-7.8-2.9-7.8-7.8s2.9-7.7,7.8-7.7,8,2.7,8,7.7S283.9,411.5,278.8,411.5Z" transform="translate(-108.5 -396)" style="fill:#3e3200"/><path d="M326.8,460.4a35,35,0,0,1-14.2,3.5c-10.3,0-14.2-4.2-14.2-14V427.1c0-.5,0-.9-.7-.9h-6.1v-7.7c7.6-.9,10.7-4.7,11.6-14.2h8.3v12.3c0,.7,0,.9.7.9h12.3v8.7h-13V447c0,5.2,1.2,7.2,5.9,7.2a23,23,0,0,0,7.1-1.4Z" transform="translate(-108.5 -396)" style="fill:#3e3200"/><path d="M197.9,437.6l-39.8-39.8a5.9,5.9,0,0,0-8.3,0l-8.3,8.3L152,416.5a7.2,7.2,0,0,1,7.2,1.7,7,7,0,0,1,1.6,7.2l10.1,10.1a7,7,0,1,1-2.6,11.6,7,7,0,0,1-1.6-7.6l-9.4-9.5v24.8a8.5,8.5,0,0,1,1.9,1.4,7,7,0,1,1-9.9,0,7.3,7.3,0,0,1,2.3-1.6v-25a5.7,5.7,0,0,1-2.3-1.5,6.9,6.9,0,0,1-1.5-7.7l-10.3-10.3-27.3,27.3a5.9,5.9,0,0,0,0,8.3L150,485.5a5.9,5.9,0,0,0,8.3,0l39.6-39.6A5.9,5.9,0,0,0,197.9,437.6Z" transform="translate(-108.5 -396)" style="fill:#e84427"/></svg>